<svg width="91" height="92" viewBox="0 0 91 92" fill="none" xmlns="http://www.w3.org/2000/svg">
<path d="M53.19 0.227132C67.9502 1.58984 90.0897 17.261 90.9841 44.7424C91.6549 69.7253 71.0806 92.21 45.3631 91.9832C19.6452 91.7559 -2.27111 69.7253 0.188931 40.4269C1.30738 28.6169 6.67466 18.8508 15.3964 11.1288C21.8816 5.45081 29.2613 1.58983 37.7594 0C37.7594 0.908472 37.983 1.36269 37.983 2.04405C37.983 8.17627 37.983 14.0813 37.983 20.2135C37.983 21.5763 37.5358 22.2576 36.4178 22.7119C27.472 27.0271 21.4344 33.6134 20.9872 44.0609C20.316 58.3693 30.6033 68.5898 42.4559 70.1798C51.6248 71.3149 59.0045 67.9084 64.8189 60.8676C71.3047 53.1458 72.4222 38.3831 63.2537 28.8441C60.7937 26.1187 57.8865 24.3017 54.532 22.7119C53.8608 22.4847 52.9664 21.3491 52.9664 20.6678C52.9664 14.3085 52.9664 7.72202 53.19 1.36272C52.9664 0.908486 53.19 0.68137 53.19 0.227132Z" fill="#0980D8"/>
<path d="M44.921 61.0877C52.7022 61.0877 59.01 54.6813 59.01 46.7793C59.01 38.8767 52.7022 32.4707 44.921 32.4707C37.1398 32.4707 30.832 38.8767 30.832 46.7793C30.832 54.6813 37.1398 61.0877 44.921 61.0877Z" fill="#F7931E"/>
</svg>
